<svg width="50" height="50" viewBox="0 0 50 50" fill="none" xmlns="http://www.w3.org/2000/svg">
<circle cx="25" cy="25" r="25" fill="#3ABAB2"/>
<path d="M18.2963 30.5185H30.963V33.7037H18.2963V30.5185ZM18.2963 25.7778H30.963V28.963H18.2963V25.7778ZM18.2963 21.037H30.963V24.2222H18.2963V21.037ZM37.2593 10V14.7407H42V17.8519H37.2593V22.5926H34.1481V17.8519H29.4074V14.7407H34.1481V10H37.2593ZM34.1481 37.1852V25.7778H37.2593V36.8148C37.2593 37.6543 36.9506 38.3951 36.3333 39.037C35.716 39.679 34.9877 40 34.1481 40H15.1852C14.3457 40 13.6049 39.679 12.963 39.037C12.321 38.3951 12 37.6543 12 36.8148V17.8519C12 17.0123 12.321 16.2839 12.963 15.6667C13.6049 15.0494 14.3457 14.7407 15.1852 14.7407H26.2222V17.8519H15.1852V37.1852H34.1481Z" fill="black"/>
</svg>
