<svg width="56" height="56" viewBox="0 0 56 56" fill="none" xmlns="http://www.w3.org/2000/svg">
<path d="M46 0H10C4.47715 0 0 4.47715 0 10V46C0 51.5229 4.47715 56 10 56H46C51.5229 56 56 51.5229 56 46V10C56 4.47715 51.5229 0 46 0Z" fill="white"/>
<path d="M46 0H10C4.47715 0 0 4.47715 0 10V46C0 51.5229 4.47715 56 10 56H46C51.5229 56 56 51.5229 56 46V10C56 4.47715 51.5229 0 46 0Z" fill="white"/>
<path d="M46 0H10C4.47715 0 0 4.47715 0 10V46C0 51.5228 4.47715 56 10 56H46C51.5228 56 56 51.5229 56 46V10C56 4.47715 51.5229 0 46 0Z" fill="#3ABAB2"/>
<path d="M19.5457 38.0608C17.9224 36.5536 17 34.4386 17 32.2234V23.9671C17 21.7521 17.9221 19.6371 19.545 18.1297C21.0187 16.7608 22.9557 16 24.9671 16H35.8319C36.5955 16 37.2144 16.619 37.2144 17.3825C37.2144 18.146 36.5955 18.765 35.8319 18.765H25.1493C23.909 18.765 22.7155 19.2385 21.8126 20.0888C20.8359 21.0086 20.2822 22.2906 20.2822 23.6321V32.5584C20.2822 33.9001 20.8362 35.1822 21.8133 36.1017C22.7158 36.951 23.9084 37.4239 25.1477 37.4239H35.8319C36.5955 37.4239 37.2144 38.0429 37.2144 38.8064C37.2144 39.5699 36.5955 40.1889 35.8319 40.1889H24.9654C22.955 40.1889 21.019 39.4287 19.5457 38.0608Z" fill="black"/>
</svg>
